<?xml version="1.0" encoding="UTF-8" standalone="no"?>
<!-- Created with Inkscape (http://www.inkscape.org/) -->

<svg
   width="110mm"
   height="100mm"
   viewBox="0 0 110 100"
   version="1.1"
   id="svg1"
   inkscape:version="1.4 (e7c3feb1, 2024-10-09)"
   sodipodi:docname="FootwallRotationsvg.svg"
   inkscape:export-filename="FootwallRotationsvg.png"
   inkscape:export-xdpi="300"
   inkscape:export-ydpi="300"
   xmlns:inkscape="http://www.inkscape.org/namespaces/inkscape"
   xmlns:sodipodi="http://sodipodi.sourceforge.net/DTD/sodipodi-0.dtd"
   xmlns="http://www.w3.org/2000/svg"
   xmlns:svg="http://www.w3.org/2000/svg">
  <sodipodi:namedview
     id="namedview1"
     pagecolor="#ffffff"
     bordercolor="#000000"
     borderopacity="0.25"
     inkscape:showpageshadow="2"
     inkscape:pageopacity="0.0"
     inkscape:pagecheckerboard="0"
     inkscape:deskcolor="#d1d1d1"
     inkscape:document-units="mm"
     inkscape:zoom="0.74440279"
     inkscape:cx="243.14793"
     inkscape:cy="339.19808"
     inkscape:window-width="1728"
     inkscape:window-height="1080"
     inkscape:window-x="0"
     inkscape:window-y="37"
     inkscape:window-maximized="0"
     inkscape:current-layer="g123-5-6" />
  <defs
     id="defs1">
    <marker
       style="overflow:visible"
       id="ArrowTriangleStylized-6-4"
       refX="0"
       refY="0"
       orient="auto-start-reverse"
       inkscape:stockid="Stylized triangle arrow"
       markerWidth="1"
       markerHeight="1"
       viewBox="0 0 1 1"
       inkscape:isstock="true"
       inkscape:collect="always"
       preserveAspectRatio="xMidYMid">
      <path
         transform="scale(0.5)"
         style="fill:context-stroke;fill-rule:evenodd;stroke:context-stroke;stroke-width:1pt"
         d="m 6,0 c -3,1 -7,3 -9,5 0,0 0,-4 2,-5 -2,-1 -2,-5 -2,-5 2,2 6,4 9,5 z"
         id="path4-2-0" />
    </marker>
  </defs>
  <g
     inkscape:label="Layer 1"
     inkscape:groupmode="layer"
     id="layer1">
    <g
       id="g123-5-6"
       transform="matrix(-19.93095,-35.243047,14.412003,-37.43434,406.27342,1808.3588)"
       style="stroke:#080808;stroke-opacity:1"
       inkscape:transform-center-x="-11.027652"
       inkscape:transform-center-y="-53.101418">
      <path
         sodipodi:type="spiral"
         style="fill:none;fill-rule:evenodd;stroke:#000000;stroke-width:0.00747153"
         id="path1"
         sodipodi:cx="348.24152"
         sodipodi:cy="332.80402"
         sodipodi:expansion="1"
         sodipodi:revolution="3"
         sodipodi:radius="79.753181"
         sodipodi:argument="-17.796789"
         sodipodi:t0="0"
         d="m 348.24152,332.80402 c 1.98003,3.47405 -3.70608,4.38302 -5.77411,3.29094 -5.60423,-2.95946 -4.46981,-10.86541 -0.80778,-14.83916 6.55052,-7.10811 17.93596,-5.03225 23.90421,1.67539 8.75865,9.84372 5.63968,25.11266 -4.15855,32.96926 -13.0595,10.4716 -32.3284,6.26798 -42.03431,-6.64172 -12.21391,-16.24554 -6.90743,-39.56305 9.12488,-51.09936 19.41727,-13.97202 46.80843,-7.55339 60.16441,11.60804 15.73956,22.58109 8.20345,54.06052 -14.09121,69.22947 -25.74007,17.51315 -61.31706,8.85625 -78.29451,-16.57437 -19.29086,-28.8959 -9.51096,-68.57676 19.05753,-87.35957 32.04954,-21.07148 75.83873,-10.16705 96.42462,21.5407 22.85424,35.20162 10.82418,83.10242 -24.02386,105.48967"
         transform="matrix(-0.00789817,0.00743584,-0.00304075,-0.00420518,32.420725,16.564104)" />
      <g
         id="g17"
         transform="matrix(1.2927939,-0.01965,-0.01509231,1.286131,-6.6373984,-6.1757621)">
        <text
           xml:space="preserve"
           style="font-size:16.9333px;line-height:0.8;font-family:sans-serif;-inkscape-font-specification:sans-serif;text-align:center;writing-mode:lr-tb;direction:ltr;text-anchor:middle;fill:#8a916f;stroke:none;stroke-width:1.474"
           x="97.956604"
           y="37.60424"
           id="text1"
           transform="matrix(-0.02985135,0.02810395,-0.0114926,-0.01589358,32.910552,17.323417)"><tspan
             sodipodi:role="line"
             id="tspan1"
             style="font-size:16.9333px;fill:#8a916f;stroke:none;stroke-width:1.474"
             x="100.93316"
             y="37.60424">Dome </tspan></text>
        <text
           xml:space="preserve"
           style="font-size:16.9333px;line-height:0.8;font-family:sans-serif;-inkscape-font-specification:sans-serif;text-align:center;writing-mode:lr-tb;direction:ltr;text-anchor:middle;fill:#2b0000;stroke:none;stroke-width:1.474"
           x="101.04447"
           y="55.892208"
           id="text1-7"
           transform="matrix(-0.02985135,0.02810395,-0.0114926,-0.01589358,32.910552,17.323417)"><tspan
             sodipodi:role="line"
             id="tspan1-3"
             style="font-size:16.9333px;fill:#2b0000;stroke:none;stroke-width:1.474"
             x="101.04447"
             y="55.892208">Vs.</tspan></text>
        <text
           xml:space="preserve"
           style="font-size:16.9333px;line-height:0.8;font-family:sans-serif;-inkscape-font-specification:sans-serif;text-align:center;writing-mode:lr-tb;direction:ltr;text-anchor:middle;fill:#008000;stroke:none;stroke-width:1.474"
           x="101.44529"
           y="72.486542"
           id="text1-9"
           transform="matrix(-0.02985135,0.02810395,-0.0114926,-0.01589358,32.910552,17.323417)"><tspan
             sodipodi:role="line"
             id="tspan1-0"
             style="font-size:16.9333px;stroke:none;stroke-width:1.474"
             x="101.44529"
             y="72.486542">Footwall</tspan></text>
        <text
           xml:space="preserve"
           style="font-size:16.9333px;line-height:0.8;font-family:sans-serif;-inkscape-font-specification:sans-serif;text-align:center;writing-mode:lr-tb;direction:ltr;text-anchor:middle;fill:none;stroke:#008000;stroke-width:1.474;stroke-dasharray:1.474, 1.474;stroke-dashoffset:6.7804;stroke-opacity:1"
           x="127.73142"
           y="29.830193"
           id="text1-9-1"
           transform="matrix(-0.03184812,0.01810526,0.00298002,-0.0267327,32.910552,17.323417)"><tspan
             sodipodi:role="line"
             id="tspan1-0-7"
             style="font-size:16.9333px;fill:none;stroke:#008000;stroke-width:1.474;stroke-dasharray:1.474, 1.474;stroke-dashoffset:6.7804;stroke-opacity:1"
             x="127.73142"
             y="29.830193">ootwall</tspan></text>
        <g
           id="g9"
           transform="matrix(-0.00957625,-0.50574299,0.56207761,-0.78538834,18.310725,48.063873)">
          <path
             style="fill:#000000;stroke:#080808;stroke-width:0.0597329;stroke-dasharray:none;stroke-opacity:1;marker-start:url(#ArrowTriangleStylized-6-4)"
             d="m 27.619196,17.699024 0.01697,-0.0429"
             id="path122-9-4"
             sodipodi:nodetypes="cc" />
          <path
             style="fill:#000000;fill-opacity:0;fill-rule:evenodd;stroke:#000000;stroke-width:0.0771613;stroke-dasharray:0.0771613, 0.0771613;stroke-dashoffset:0;stroke-opacity:1"
             d="m 27.646587,17.657643 c 0.392535,-0.301509 0.659512,-0.42322 0.862576,-0.453414 0.313705,-0.04673 0.474876,0.125146 0.710727,0.189987"
             id="path7"
             sodipodi:nodetypes="csc" />
        </g>
      </g>
    </g>
  </g>
</svg>
